<?xml version="1.0" encoding="UTF-8"?>
<!DOCTYPE svg PUBLIC "-//W3C//DTD SVG 1.1//EN" "http://www.w3.org/Graphics/SVG/1.1/DTD/svg11.dtd">
<svg version="1.1" xmlns="http://www.w3.org/2000/svg" xmlns:xlink="http://www.w3.org/1999/xlink" x="0" y="0" width="150" height="500" viewBox="0, 0, 150, 500">
  <g id="Layer_1">
    <path d="M10,300 L140,300 C145.523,300 150,304.477 150,310 L150,310 C150,315.523 145.523,320 140,320 L10,320 C4.477,320 0,315.523 0,310 L0,310 C0,304.477 4.477,300 10,300 z" fill="#3E3E40"/>
    <path d="M10,430 L140,430 C145.523,430 150,434.477 150,440 L150,440 C150,445.523 145.523,450 140,450 L10,450 C4.477,450 0,445.523 0,440 L0,440 C0,434.477 4.477,430 10,430 z" fill="#3E3E40"/>
    <path d="M10,365 L140,365 C145.523,365 150,369.477 150,375 L150,375 C150,380.523 145.523,385 140,385 L10,385 C4.477,385 0,380.523 0,375 L0,375 C0,369.477 4.477,365 10,365 z" fill="#3E3E40"/>
  </g>
</svg>
