<?xml version="1.0" encoding="UTF-8"?>
<!DOCTYPE svg PUBLIC "-//W3C//DTD SVG 1.1//EN" "http://www.w3.org/Graphics/SVG/1.1/DTD/svg11.dtd">
<svg version="1.1" xmlns="http://www.w3.org/2000/svg" xmlns:xlink="http://www.w3.org/1999/xlink" x="0" y="0" width="550" height="600" viewBox="0, 0, 550, 600">
  <g id="Background">
    <rect x="0" y="0" width="550" height="600" fill="#D4D8D6"/>
  </g>
  <g id="Layer_1">
    <path d="M500,0 L500,600 L50,600 L50,0 L500,0 z M334.235,477.114 C323.887,501.612 302.151,517.894 275,518.181 L274.999,518.182 C265.409,517.698 255.872,516.38 247.326,511.625 C233.963,517.179 239.655,514.356 230.015,519.599 C229.547,519.881 228.8,520.336 226.418,521.789 C226.417,521.79 226.417,521.79 226.415,521.79 C224.237,523.119 223.3,523.689 223.036,523.839 C216.817,527.615 219.653,526.162 214.67,528.465 C219.614,531.803 224.252,535.646 229.501,538.479 C243.525,546.05 259.113,549.885 274.999,550 L275.022,549.998 C318.199,546.313 357.618,521.923 367.299,477.352 C363.118,478.026 358.881,477.981 354.659,478.231 C342.763,478.096 349.577,478.348 334.235,477.114 z M377.926,324.99 C370.893,340.754 368.183,357.763 368.465,375 C368.465,403.342 373.853,420.701 385.647,440.358 C386.457,441.709 389.41,446.531 390.062,447.617 C396.179,457.812 398.295,463.984 398.294,474.432 C398.295,485.532 385.531,498.296 374.431,498.296 C369.936,498.172 371.931,498.358 368.432,497.89 C363.93,508.592 357.662,517.611 349.905,526.186 C352.331,526.925 354.698,527.899 357.183,528.404 C365.284,530.052 367.318,529.898 374.431,530.114 C403.104,530.114 430.113,503.105 430.112,474.432 C430.113,457.437 426.183,445.977 417.345,431.247 C416.595,429.996 413.642,425.174 412.931,423.988 C403.951,409.022 400.283,397.203 400.283,374.999 C400.48,366.153 400.461,357.066 403.286,348.575 C396.046,337.487 390.185,331.09 377.927,324.99 z M123.815,449.904 C123.076,452.33 122.102,454.697 121.596,457.183 C119.948,465.284 120.103,467.319 119.887,474.432 C119.887,503.105 146.896,530.114 175.567,530.113 L175.574,530.114 C191.071,529.644 205.658,525.986 218.753,517.346 C220.004,516.596 224.827,513.643 226.012,512.932 C240.978,503.952 252.797,500.284 274.999,500.284 C283.849,500.481 292.939,500.463 301.433,503.289 C312.547,496.081 318.929,490.189 325.03,477.936 C309.259,470.899 292.245,468.181 275,468.466 C246.659,468.466 229.299,473.854 209.642,485.648 C208.292,486.458 203.469,489.411 202.383,490.063 C192.189,496.18 186.017,498.296 175.567,498.295 L175.567,498.295 C163.242,496.627 152.925,487.118 151.705,474.432 C151.828,469.936 151.643,471.932 152.11,468.431 C141.408,463.929 132.39,457.66 123.815,449.904 z M194.765,383.09 C184.085,405.175 180.518,430.312 179.545,454.545 C180.129,466.11 180.862,478.133 186.251,488.646 C195.03,485.58 191.016,487.398 198.382,483.393 C198.815,483.133 199.409,482.772 202.025,481.176 C202.028,481.175 202.028,481.175 202.03,481.173 C204.075,479.926 205.064,479.324 205.64,478.979 C208.573,477.322 211.458,475.566 214.484,474.082 C211.867,467.892 211.634,461.115 211.363,454.545 C212.233,441.552 212.657,428.138 217.479,415.795 C209.081,405.502 200.572,395.156 194.765,383.09 z M315.635,433.156 C295.072,449.076 303.175,443.939 283.503,455.239 C306.068,464.78 329.859,470.819 354.544,470.454 C366.216,469.865 378.333,469.088 388.931,463.628 C385.246,454.472 387.213,458.417 383.392,451.618 C383.134,451.187 382.808,450.652 381.174,447.974 L381.171,447.97 C379.934,445.94 379.323,444.936 378.977,444.36 L373.946,435.573 C367.768,438.182 361.076,438.348 354.544,438.636 C341.438,438.305 328.19,437.223 315.635,433.156 z M309.714,381.7 C286.169,408.997 257.096,429.768 221.036,436.348 C219.784,442.352 219.446,448.428 219.14,454.544 C219.85,463.84 219.124,459.337 221.236,468.068 C260.692,463.436 297.302,442.069 324.371,413.741 C320.37,402.702 316.907,391.267 309.714,381.7 z M121.571,314.616 C118.221,319.578 114.366,324.233 111.521,329.5 C103.948,343.523 100.116,359.113 100,374.999 L100.005,375.052 C103.689,418.234 128.113,457.636 172.682,467.308 C171.994,463.034 172.005,458.71 171.768,454.394 C172.673,437.68 171.901,444.32 173.262,434.394 C148.619,423.985 132.088,402.408 131.819,374.999 L131.818,374.997 C132.559,365.512 133.562,355.757 138.375,347.326 C132.82,333.961 135.643,339.653 130.399,330.013 C130.117,329.543 129.631,328.744 128.211,326.416 C128.211,326.416 128.211,326.416 128.211,326.415 C126.862,324.204 126.311,323.298 125.985,322.754 C122.476,316.761 123.887,319.504 121.572,314.616 z M377.337,282.695 L377.337,282.696 C378.017,286.916 377.986,291.191 378.231,295.453 C377.958,309.101 378.458,302.379 376.778,315.622 C400.807,326.682 417.935,347.692 418.18,374.994 L418.18,375 C417.667,385.177 416.072,395.122 410.992,404.166 C413.509,409.742 416.759,414.975 419.599,419.986 C419.881,420.455 420.357,421.237 421.788,423.582 C421.788,423.583 421.788,423.583 421.789,423.584 C423.13,425.784 423.688,426.701 424.015,427.245 C427.523,433.238 426.111,430.494 428.428,435.383 C431.778,430.422 435.633,425.767 438.477,420.499 C445.571,406.312 450.073,391.032 449.999,375 C447.817,331.807 421.762,291.867 377.337,282.696 z M313.707,325.593 L313.707,325.593 C302.676,329.716 291.676,333.191 282.341,340.814 C309.508,364.322 329.807,393.732 336.481,429.547 C349.478,430.758 343.454,430.369 354.544,430.858 C363.839,430.148 359.336,430.874 368.066,428.763 C363.432,389.289 342.048,352.67 313.707,325.593 z M175.568,219.885 L175.569,219.886 C146.896,219.886 119.887,246.895 119.887,275.568 C119.887,292.563 123.816,304.024 132.654,318.753 C133.404,320.004 136.358,324.826 137.069,326.011 C146.048,340.978 149.716,352.797 149.716,374.999 C149.519,383.846 149.538,392.933 146.713,401.424 C153.957,412.509 159.814,418.906 172.074,425.007 C179.108,409.244 181.816,392.235 181.534,375 C181.535,346.658 176.147,329.299 164.352,309.641 C163.543,308.291 160.589,303.469 159.938,302.383 C153.821,292.188 151.705,286.016 151.705,275.568 C151.705,264.468 164.469,251.704 175.568,251.704 C180.111,251.829 178.068,251.642 181.708,252.128 C185.675,241.655 192.391,231.586 200.622,223.975 C198.021,223.182 195.481,222.144 192.817,221.595 C185.237,220.203 189.461,220.811 180.113,220.011 L175.568,219.885 z M195.454,319.141 C186.165,319.85 190.668,319.126 181.932,321.234 C186.565,360.711 207.954,397.334 236.299,424.413 C247.331,420.353 258.711,416.881 268.315,409.727 C240.874,386.06 220.069,356.833 213.576,320.563 C200.668,319.162 206.713,319.576 195.454,319.141 z M328.654,281.484 C290.296,289.882 252.35,306.618 225.655,336.378 C229.967,347.456 233.925,358.699 241.723,367.999 C266.848,337.519 289.848,321.785 329.205,313.736 C330.866,302.366 330.241,308.453 330.858,295.453 C330.136,286.006 330.873,290.661 328.654,281.484 z M363.64,261.097 C359.325,262.238 355.39,264.215 351.62,266.604 C351.19,266.863 350.761,267.125 347.975,268.823 L347.969,268.826 C345.96,270.053 344.936,270.675 344.359,271.02 L335.5,275.881 C338.118,282.077 338.371,288.873 338.636,295.454 C338.304,308.59 337.216,321.87 333.129,334.45 C341.653,344.307 350.074,354.567 355.148,366.71 C364.72,344.071 370.835,320.227 370.454,295.454 C369.865,283.793 369.092,271.686 363.64,261.097 z M195.454,279.545 C183.783,280.134 171.666,280.911 161.068,286.371 C164.751,295.525 162.785,291.58 166.606,298.38 C166.865,298.811 167.169,299.31 168.824,302.024 C168.826,302.027 168.826,302.027 168.827,302.029 C170.061,304.052 170.676,305.063 171.021,305.639 L175.881,314.499 C182.078,311.881 188.874,311.628 195.454,311.363 C208.745,311.699 222.181,312.82 234.893,317.007 C257.479,300.034 246.525,307.118 267.331,295.114 C247.263,287.059 226.579,280.62 204.791,279.695 L195.454,279.545 z M374.431,219.886 L374.431,219.886 C357.437,219.886 345.976,223.815 331.246,232.653 C329.996,233.404 325.173,236.357 323.988,237.068 C309.022,246.048 297.203,249.716 274.999,249.715 C266.151,249.518 257.062,249.537 248.569,246.711 C237.466,253.934 231.081,259.811 224.977,272.066 C240.745,279.103 257.757,281.818 275,281.534 C303.341,281.534 320.701,276.146 340.358,264.352 C341.708,263.542 346.531,260.589 347.616,259.937 C357.811,253.82 363.983,251.704 374.431,251.704 C385.531,251.704 398.295,264.468 398.294,275.568 C398.168,280.156 398.356,278.068 397.852,281.844 C408.239,286.293 418.578,291.616 426.119,300.309 C426.88,297.811 427.88,295.374 428.403,292.816 C430.049,284.772 429.897,282.651 430.112,275.568 C430.113,246.895 403.104,219.886 374.431,219.886 z M274.99,200 C271.716,200.33 272.781,199.907 271.579,200.413 C229.915,205.45 192.2,229.766 182.987,272.778 C189.091,271.908 184.953,272.418 195.454,271.767 C212.576,272.45 205.858,271.679 215.701,273.035 C226.11,250.441 244.702,234.673 269.956,232.057 L275,231.817 C284.59,232.302 294.126,233.62 302.672,238.374 C316.038,232.818 310.346,235.642 319.987,230.398 C320.458,230.115 321.287,229.611 323.582,228.21 L323.583,228.209 C325.818,226.847 326.702,226.31 327.244,225.983 C333.972,222.15 331.199,223.504 335.38,221.568 C316.794,209.018 307.844,203.472 284.759,200.492 L274.99,200 z" fill="#3D3F3E"/>
  </g>
</svg>
