<?xml version="1.0" encoding="UTF-8"?>
<!DOCTYPE svg PUBLIC "-//W3C//DTD SVG 1.1//EN" "http://www.w3.org/Graphics/SVG/1.1/DTD/svg11.dtd">
<svg version="1.1" xmlns="http://www.w3.org/2000/svg" xmlns:xlink="http://www.w3.org/1999/xlink" x="0" y="0" width="50" height="50" viewBox="0, 0, 50, 50">
  <g id="Layer_1">
    <path d="M27.206,31.74 Q27.206,27.811 28.294,24.123 Q29.383,20.436 31.831,17.293 Q34.279,14.149 38.148,11.641 Q42.016,9.132 47.517,7.5 L47.517,12.699 Q41.472,14.633 38.631,17.414 Q35.79,20.194 35.79,23.821 Q35.79,25.03 36.455,25.846 Q37.12,26.662 38.117,27.297 Q39.115,27.932 40.294,28.536 Q41.472,29.141 42.47,29.987 Q43.467,30.833 44.132,32.073 Q44.797,33.312 44.797,35.186 Q44.797,38.752 42.5,40.626 Q40.203,42.5 36.757,42.5 Q34.883,42.5 33.13,41.805 Q31.377,41.11 30.078,39.75 Q28.778,38.389 27.992,36.364 Q27.206,34.339 27.206,31.74 z M2.483,31.74 Q2.483,27.811 3.571,24.123 Q4.659,20.436 7.107,17.293 Q9.555,14.149 13.424,11.641 Q17.293,9.132 22.794,7.5 L22.794,12.699 Q16.688,14.633 13.847,17.414 Q11.006,20.194 11.006,23.821 Q11.006,25.03 11.671,25.846 Q12.336,26.662 13.364,27.297 Q14.391,27.932 15.54,28.536 Q16.688,29.141 17.716,29.987 Q18.744,30.833 19.408,32.073 Q20.073,33.312 20.073,35.186 Q20.073,38.752 17.746,40.626 Q15.419,42.5 11.973,42.5 Q10.099,42.5 8.377,41.805 Q6.654,41.11 5.324,39.75 Q3.994,38.389 3.238,36.364 Q2.483,34.339 2.483,31.74 z" fill="#3D3F3E"/>
  </g>
</svg>
